<mxfile host="app.diagrams.net" modified="2023-06-22T21:38:24.141Z" agent="Mozilla/5.0 (Windows NT 10.0; Win64; x64) AppleWebKit/537.36 (KHTML, like Gecko) Chrome/114.0.0.0 Safari/537.36" etag="6qI2Y5AdsL_ucBB026zG" version="21.5.0" type="github">
  <diagram name="Страница 1" id="Ea7saPr4mLlRLFJ1H86w">
    <mxGraphModel dx="574" dy="318" grid="1" gridSize="10" guides="1" tooltips="1" connect="1" arrows="1" fold="1" page="1" pageScale="1" pageWidth="827" pageHeight="1169" math="0" shadow="0">
      <root>
        <mxCell id="0" />
        <mxCell id="1" parent="0" />
        <mxCell id="fYj38g9z5q-KbhgkYL7t-1" value="" style="rounded=0;whiteSpace=wrap;html=1;" vertex="1" parent="1">
          <mxGeometry x="230" y="20" width="420" height="760" as="geometry" />
        </mxCell>
        <mxCell id="fYj38g9z5q-KbhgkYL7t-7" style="edgeStyle=orthogonalEdgeStyle;rounded=0;orthogonalLoop=1;jettySize=auto;html=1;exitX=0.5;exitY=0.5;exitDx=0;exitDy=0;exitPerimeter=0;" edge="1" parent="1" source="fYj38g9z5q-KbhgkYL7t-2" target="fYj38g9z5q-KbhgkYL7t-4">
          <mxGeometry relative="1" as="geometry" />
        </mxCell>
        <mxCell id="fYj38g9z5q-KbhgkYL7t-9" style="edgeStyle=orthogonalEdgeStyle;rounded=0;orthogonalLoop=1;jettySize=auto;html=1;exitX=0.5;exitY=0.5;exitDx=0;exitDy=0;exitPerimeter=0;" edge="1" parent="1" source="fYj38g9z5q-KbhgkYL7t-2" target="fYj38g9z5q-KbhgkYL7t-8">
          <mxGeometry relative="1" as="geometry" />
        </mxCell>
        <mxCell id="fYj38g9z5q-KbhgkYL7t-2" value="Пассажир" style="shape=umlActor;verticalLabelPosition=bottom;verticalAlign=top;html=1;" vertex="1" parent="1">
          <mxGeometry x="80" y="120" width="30" height="60" as="geometry" />
        </mxCell>
        <mxCell id="fYj38g9z5q-KbhgkYL7t-3" value="Водитель" style="shape=umlActor;verticalLabelPosition=bottom;verticalAlign=top;html=1;" vertex="1" parent="1">
          <mxGeometry x="740" y="120" width="30" height="60" as="geometry" />
        </mxCell>
        <mxCell id="fYj38g9z5q-KbhgkYL7t-4" value="Заказ такси" style="ellipse;whiteSpace=wrap;html=1;" vertex="1" parent="1">
          <mxGeometry x="240" y="80" width="100" height="70" as="geometry" />
        </mxCell>
        <mxCell id="fYj38g9z5q-KbhgkYL7t-8" value="Отмена заказа" style="ellipse;whiteSpace=wrap;html=1;" vertex="1" parent="1">
          <mxGeometry x="250" y="180" width="90" height="70" as="geometry" />
        </mxCell>
        <mxCell id="fYj38g9z5q-KbhgkYL7t-10" value="&amp;lt;&amp;lt;include&amp;gt;&amp;gt;" style="html=1;verticalAlign=bottom;labelBackgroundColor=none;endArrow=open;endFill=0;dashed=1;rounded=0;" edge="1" parent="1" source="fYj38g9z5q-KbhgkYL7t-4" target="fYj38g9z5q-KbhgkYL7t-11">
          <mxGeometry x="0.2108" y="13" width="160" relative="1" as="geometry">
            <mxPoint x="340" y="150" as="sourcePoint" />
            <mxPoint x="500" y="150" as="targetPoint" />
            <Array as="points">
              <mxPoint x="360" y="140" />
            </Array>
            <mxPoint as="offset" />
          </mxGeometry>
        </mxCell>
        <mxCell id="fYj38g9z5q-KbhgkYL7t-11" value="Подтверждение предложенного водителя" style="ellipse;whiteSpace=wrap;html=1;" vertex="1" parent="1">
          <mxGeometry x="380" y="130" width="120" height="70" as="geometry" />
        </mxCell>
      </root>
    </mxGraphModel>
  </diagram>
</mxfile>
